<svg id="Layer_1" data-name="Layer 1" xmlns="http://www.w3.org/2000/svg" viewBox="0 0 760.43 261.29"><defs><style>.cls-1{fill:#fff;}</style></defs><title>mobajllogo_white</title><path class="cls-1" d="M197.07,244.32a39.7,39.7,0,0,1,13.17,12,53.34,53.34,0,0,1,7.7,17.15,79.51,79.51,0,0,1,2.53,20.07v54.22a32.6,32.6,0,0,1-2.79,13.43q-2.8,6.24-9.17,6.24-5.32,0-7.71-5.59a30.66,30.66,0,0,1-2.39-12.23l-0.27-39.34a105.69,105.69,0,0,0-1.73-19.54,47,47,0,0,0-6-16.08,32,32,0,0,0-11.3-11q-7-4.12-17.42-4.12A22.77,22.77,0,0,0,147.37,264a33.19,33.19,0,0,0-9.43,11.7,55.89,55.89,0,0,0-5.06,15.81,100.12,100.12,0,0,0-1.46,16.61v39.34a33.76,33.76,0,0,1-2.66,14.23,9.24,9.24,0,0,1-9,5.72q-5.32,0-8.24-5.59t-2.92-14.35V307.58q0-14.35-2.79-23.66T98.2,269a25.34,25.34,0,0,0-10.9-7.71,38.49,38.49,0,0,0-12.75-2.13,24,24,0,0,0-14.09,4.25,34.72,34.72,0,0,0-10.24,11.43A56.78,56.78,0,0,0,44.1,291.5a95.51,95.51,0,0,0-2,19.8v37a30.26,30.26,0,0,1-2.79,13.42q-2.8,5.71-8.37,5.72a9.2,9.2,0,0,1-8.24-4.65q-2.93-4.66-2.93-14V267.44q0-10.36,2.93-16.21t11.42-5.85a27.9,27.9,0,0,1,5.71.54q2.53,0.54,4.91,1.2c1.6,0.44,3.28.84,5.06,1.19a32.44,32.44,0,0,0,6.37.53,18,18,0,0,0,7.32-1.46c2.21-1,4.56-2,7-3.06a79.53,79.53,0,0,1,8.64-3.06,43.08,43.08,0,0,1,12.1-1.46,36.69,36.69,0,0,1,12.89,2.13q5.72,2.13,11,4.52t10.5,4.52a28.71,28.71,0,0,0,11,2.12,20.49,20.49,0,0,0,10-2.12q3.86-2.12,7.84-4.52a65.7,65.7,0,0,1,9.31-4.52q5.31-2.13,14.34-2.13Q189.1,239.8,197.07,244.32Z" transform="translate(-19.78 -169.36)"/><path class="cls-1" d="M368.25,328.71a64.76,64.76,0,0,1-13.69,21A66.07,66.07,0,0,1,333,364.32a70.79,70.79,0,0,1-28.31,5.45,74.92,74.92,0,0,1-25.92-4.52,64.54,64.54,0,0,1-21.66-13,61.69,61.69,0,0,1-14.76-20.74,71.56,71.56,0,0,1,.27-55.42,63.62,63.62,0,0,1,15.15-20.86,66.39,66.39,0,0,1,21.66-13,72.36,72.36,0,0,1,25.26-4.52,76.07,76.07,0,0,1,25.65,4.39,63,63,0,0,1,36.95,33.76Q373,288.18,373,304.12A65.08,65.08,0,0,1,368.25,328.71Zm-104.33-8.24A45.58,45.58,0,0,0,272.69,335a45,45,0,0,0,13.82,10.36,40.64,40.64,0,0,0,18.21,4A42.47,42.47,0,0,0,321.2,346a44.3,44.3,0,0,0,14.09-9.31,46.26,46.26,0,0,0,9.83-14.22,44.06,44.06,0,0,0,3.73-18.34,47.78,47.78,0,0,0-13.16-33.62,40.81,40.81,0,0,0-14-9.57,43.79,43.79,0,0,0-17-3.32,41.26,41.26,0,0,0-17.42,3.72,44,44,0,0,0-14,10A45.48,45.48,0,0,0,264.18,286a49.33,49.33,0,0,0-3.32,18.08A45.91,45.91,0,0,0,263.92,320.47Z" transform="translate(-19.78 -169.36)"/><path class="cls-1" d="M441.1,247.77q3.46-1.06,7.58-2.52a76.17,76.17,0,0,1,8.9-2.53,49.1,49.1,0,0,1,10.63-1.07,57.23,57.23,0,0,1,22.6,4.52,53.72,53.72,0,0,1,18.6,13.16,64.59,64.59,0,0,1,12.77,21.4,82.29,82.29,0,0,1,4.78,29q0,16.74-6.12,28.84a69.14,69.14,0,0,1-14.62,19.93,56.28,56.28,0,0,1-17.81,11.43q-9.31,3.59-16,3.59-11.17,0-17-1.46a51.58,51.58,0,0,1-9.7-3.33q-3.85-1.86-7.58-3.32T427,363.92a37,37,0,0,0-7.71.54,28.38,28.38,0,0,0-3.45,1.07,33,33,0,0,1-3.19,1.06,30.88,30.88,0,0,1-7.17.53q-4.79,0-7.44-2.12a14.66,14.66,0,0,1-4.13-5.19,20.32,20.32,0,0,1-1.86-6.25,44.61,44.61,0,0,1-.4-5.58V189.29q0-9.3,2.92-14.62t7.44-5.31q4,0,7.84,4.38T413.73,188v26q0,15.15,4.25,25t16.22,9.83A23.39,23.39,0,0,0,441.1,247.77Zm34.29,102.07A44.75,44.75,0,0,0,499.45,325a49.36,49.36,0,0,0-.27-36.28,44.79,44.79,0,0,0-10-14.75,46.17,46.17,0,0,0-32.43-13.16,37.06,37.06,0,0,0-15.55,3.45,41.4,41.4,0,0,0-13.42,9.84,50.44,50.44,0,0,0-13,34.55A44.26,44.26,0,0,0,418,325a48.86,48.86,0,0,0,8.77,14.49,43.41,43.41,0,0,0,13.16,10.24,36.06,36.06,0,0,0,16.62,3.85A46.65,46.65,0,0,0,475.39,349.84Z" transform="translate(-19.78 -169.36)"/><path class="cls-1" d="M652.69,345.59a22.83,22.83,0,0,1-3.32,12.1q-3.32,5.46-11.57,5.45h-0.26c-1.24,0-3-.09-5.18-0.27s-4.57-.49-7-0.93a42.54,42.54,0,0,1-7.31-2,15.61,15.61,0,0,1-5.72-3.46q0.8-.8,3.32-3.45a41.57,41.57,0,0,0,5.05-6.78,56.88,56.88,0,0,0,4.51-9.3,31.11,31.11,0,0,0,2-11.3,17.49,17.49,0,0,0-2.79-9.83,27.49,27.49,0,0,0-7-7.31,34.24,34.24,0,0,0-8.9-4.65,25.57,25.57,0,0,0-8.1-1.59,31.51,31.51,0,0,0-8.24,1.73,48.17,48.17,0,0,0-11.3,5.32,37.72,37.72,0,0,0-10,9.17A21.72,21.72,0,0,0,566.56,332a20.67,20.67,0,0,0,3.86,12.49,28.88,28.88,0,0,0,9.7,8.51,41,41,0,0,0,12.76,4.39,43.19,43.19,0,0,0,13,.39,24.39,24.39,0,0,1-6.38,4.52,45.3,45.3,0,0,1-8,3.06,77,77,0,0,1-8.24,1.86,43.18,43.18,0,0,1-6.91.67,50.41,50.41,0,0,1-8.9-1.19A36.16,36.16,0,0,1,544.9,351.3q-4.66-6.78-4.65-17.94t5.18-18.07a36.67,36.67,0,0,1,13.16-10.9,58.92,58.92,0,0,1,17.67-5.45A126.2,126.2,0,0,1,595,297.47,41.3,41.3,0,0,0,605.37,296a34.47,34.47,0,0,0,10.1-4.39,27.87,27.87,0,0,0,7.58-7.17,16.86,16.86,0,0,0,3.06-10.1,17.13,17.13,0,0,0-3.59-10.76,32,32,0,0,0-8.5-7.71,38.32,38.32,0,0,0-10.37-4.52,36.75,36.75,0,0,0-9.17-1.47q-13.55,0-22.33,2.67t-13.55,2.66a5.38,5.38,0,0,1-1.86-.4,1.32,1.32,0,0,1-1.06-1.2c0-.53,1.15-1.59,3.45-3.19a49.65,49.65,0,0,1,10-4.92,97.16,97.16,0,0,1,15.81-4.38,106.12,106.12,0,0,1,20.74-1.86q22.59,0,34.82,13.3t12.23,39.6v53.43Z" transform="translate(-19.78 -169.36)"/><path class="cls-1" d="M694.57,402.2a50.12,50.12,0,0,1-7.84,15.68,31.87,31.87,0,0,1-11.7,9.57,33.59,33.59,0,0,1-14.49,3.19,36.43,36.43,0,0,1-11.43-1.59c-3.18-1.07-4.78-3.72-4.78-8a8.17,8.17,0,0,1,1.86-5.58,19.25,19.25,0,0,1,4.78-3.86q2.92-1.73,6.65-3.85a35.79,35.79,0,0,0,7.44-5.85,25.69,25.69,0,0,0,5.45-8.1,52,52,0,0,0,3.06-9.57,54,54,0,0,0,1.2-10q0.13-5.06.13-9.84V261.85q0-9.56,2.39-15.55t9-6a9.05,9.05,0,0,1,8.37,4.91q2.79,4.91,2.79,16.08V380.94A71.12,71.12,0,0,1,694.57,402.2ZM679,194.61A9.9,9.9,0,0,1,676.5,188a11.46,11.46,0,0,1,2.52-7,8.36,8.36,0,0,1,7.05-3.32q5.57,0,8,3.32a11.86,11.86,0,0,1,2.39,7,9.92,9.92,0,0,1-2.52,6.64q-2.53,2.93-7.84,2.92A8.81,8.81,0,0,1,679,194.61Z" transform="translate(-19.78 -169.36)"/><path class="cls-1" d="M743.16,342.66q0,10.9-2.53,17.81T732,367.38q-6.92,0-9.3-6.64t-2.39-18.08V202.58q0-13.56,2.39-20.34t9.3-6.78q5.84,0,8.51,6.92t2.66,20.2V342.66Z" transform="translate(-19.78 -169.36)"/><path class="cls-1" d="M768.07,368.09a12.15,12.15,0,1,1,12.15-12.15A12.13,12.13,0,0,1,768.07,368.09Zm0-22.9a10.74,10.74,0,1,0,10.78,10.74A10.72,10.72,0,0,0,768,345.19Zm-4.51,3.7h6c2.08,0,4.09.39,4.27,3.41,0.07,1.73-.46,2.36-1.76,3.35,1.37,0.88,1.41,1.09,1.62,3.42,0.14,1.76-.11,2,0.63,3.2h-2l-0.28-1.69c-0.29-1.59.49-4.05-2.29-4.05h-4.41v5.75h-1.73V348.89Zm1.73,1.51V355h4.3c1.16,0,2.29-.31,2.47-2,0.25-2.29-1.41-2.57-2.47-2.57h-4.3Z" transform="translate(-19.78 -169.36)"/></svg>
