<svg xmlns="http://www.w3.org/2000/svg" xmlns:xlink="http://www.w3.org/1999/xlink" width="170px" height="51px">
    <path fill-rule="evenodd" fill="rgb(255,255,255)" d="M169.646,50.418 L169.419,50.645 C169.150,50.863 168.813,50.999 168.442,50.999 L162.724,50.999 C162.353,50.999 162.016,50.863 161.747,50.645 L161.520,50.418 C161.302,50.149 161.166,49.812 161.166,49.440 L161.166,16.196 C161.166,15.824 161.302,15.487 161.520,15.219 L161.747,14.991 C162.016,14.773 162.353,14.636 162.724,14.636 L168.442,14.636 C168.813,14.636 169.150,14.773 169.419,14.991 L169.646,15.219 C169.864,15.487 170.000,15.824 170.000,16.196 L170.000,49.440 C170.000,49.812 169.864,50.149 169.646,50.418 ZM138.879,50.999 L117.760,50.999 C116.857,50.999 116.123,50.265 116.123,49.361 L116.123,1.639 C116.123,0.735 116.857,0.000 117.760,0.000 L123.291,0.000 C124.333,0.000 124.957,0.783 124.957,1.639 C124.957,4.878 124.957,14.636 124.957,14.636 L138.879,14.636 C148.895,14.636 157.043,22.793 157.043,32.818 C157.043,42.843 148.895,50.999 138.879,50.999 ZM139.457,23.509 C139.457,23.509 139.258,23.479 139.214,23.479 L125.715,23.479 C125.297,23.479 124.958,23.819 124.957,24.237 L124.957,41.399 C124.957,41.817 125.297,42.156 125.715,42.156 L139.214,42.156 C139.257,42.156 139.455,42.127 139.455,42.127 C144.364,41.827 148.209,37.738 148.209,32.818 C148.209,27.899 144.364,23.810 139.457,23.509 ZM109.588,23.451 L109.093,23.479 C109.029,23.479 108.986,23.488 108.943,23.494 L108.854,23.507 C103.923,23.810 100.079,27.899 100.079,32.818 L100.050,49.362 C100.050,50.265 99.316,50.999 98.413,50.999 L92.881,50.999 C91.979,50.999 91.244,50.265 91.244,49.361 L91.244,32.818 C91.244,22.793 99.393,14.636 109.408,14.636 L109.588,14.636 C110.491,14.636 111.225,15.371 111.225,16.275 L111.225,21.812 C111.225,22.716 110.491,23.451 109.588,23.451 ZM77.370,50.999 L62.910,50.999 C52.895,50.999 44.747,42.843 44.747,32.818 C44.747,22.793 52.895,14.636 62.910,14.636 L68.495,14.636 C78.510,14.636 86.659,22.793 86.659,32.818 L86.659,44.322 L86.662,44.322 L86.662,50.999 L85.537,50.999 L77.370,50.999 ZM77.824,32.818 C77.824,27.899 73.979,23.810 69.071,23.509 L68.961,23.495 C68.918,23.488 68.874,23.479 68.829,23.479 L62.576,23.479 C62.531,23.479 62.488,23.488 62.445,23.494 L62.356,23.507 C57.425,23.810 53.581,27.899 53.581,32.818 C53.581,37.737 57.426,41.826 62.335,42.127 L62.449,42.143 C62.491,42.149 62.532,42.156 62.576,42.156 L77.067,42.156 C77.484,42.156 77.824,41.817 77.824,41.399 L77.824,32.818 ZM45.655,16.052 L24.533,50.224 C24.229,50.539 23.813,50.719 23.365,50.719 L22.470,50.718 C22.011,50.738 21.611,50.544 21.308,50.239 L21.066,49.937 L0.296,16.128 C0.107,15.868 0.000,15.538 0.000,15.195 C0.000,14.293 0.733,13.558 1.634,13.556 L9.343,13.556 C9.846,13.556 10.309,13.784 10.618,14.174 L22.916,35.918 L35.918,14.124 C36.226,13.765 36.671,13.556 37.152,13.556 L44.259,13.556 C45.162,13.556 45.897,14.291 45.897,15.195 C45.897,15.375 45.866,15.554 45.807,15.725 L45.655,16.052 Z"></path>
</svg>
