<svg version="1.2" xmlns="http://www.w3.org/2000/svg" viewBox="0 0 221 62" width="221" height="62">
	<title>logo-primary-black-2020-svg</title>
	<style>
		.s0 { fill: #ffffff } 
	</style>
	<g id="Layer">
		<path id="Layer" fill-rule="evenodd" class="s0" d="m53.5-0.2h11c6.8 0 10.4 3.8 10.4 9.4c0 4-2.1 6.4-5.6 7.8l6.7 12.2h-6l-6.6-12.2h-4.6v12.2h-5.3zm10.2 12.7c3.9 0 5.7-1.1 5.7-4.1c0-2.6-1.8-4.1-5.8-4.1h-4.9v8.3z"/>
		<path id="Layer" class="s0" d="m98.2 17.8c0-6.7 4.1-11.4 10.5-11.4c5.4 0 9.1 3.1 9.5 7.9h-5c-0.3-2.2-2.2-3.8-4.4-3.7c-3.2 0-5.3 2.7-5.3 7.1c0 4.4 2.1 7.2 5.3 7.2c2.2 0.1 4.1-1.5 4.4-3.7h5c-0.4 4.7-3.9 8-9.4 8c-6.7 0-10.6-4.7-10.6-11.4z"/>
		<path id="Layer" fill-rule="evenodd" class="s0" d="m119.5 17.8c0-6.8 4.1-11.4 10.6-11.4c6.5 0 10.6 4.6 10.6 11.4c0 6.8-4.1 11.4-10.6 11.4c-6.5 0-10.6-4.6-10.6-11.4zm15.8 0c0-4-1.8-7.3-5.3-7.3c-3.5 0-5.3 3.2-5.3 7.3c0 4.1 1.7 7.2 5.3 7.2c3.6 0 5.3-3.1 5.3-7.2z"/>
		<path id="Layer" class="s0" d="m142.1 7.1h5v3.7h0.2c0.7-2.4 2.9-4.1 5.4-4c0.6 0 1.2 0.1 1.9 0.1v4.8q-1.2-0.3-2.4-0.3c-2.6-0.2-4.8 1.8-5 4.4v0.4v13h-5.2z"/>
		<path id="Layer" fill-rule="evenodd" class="s0" d="m155.1 18.2c0-7.4 4-11.3 9.1-11.3c2.7-0.1 5.2 1.4 6.3 3.9h0.2v-11h5.2v29.4h-5.1v-3.5h-0.3c-0.8 1.6-2.5 3.5-6.3 3.5c-5.1 0-9.1-3.7-9.1-11zm15.8 0c0-4.3-1.8-7-5.2-7c-3.4 0-5.2 2.9-5.2 7c0 4.1 1.8 7.2 5.2 7.2c3.4 0 5.2-2.9 5.2-7.2z"/>
		<path id="Layer" fill-rule="evenodd" class="s0" d="m200.5 18.2c0-7.4 4-11.3 9.1-11.3c2.7-0.1 5.2 1.4 6.3 3.9h0.2v-11h5.2v29.4h-5.1v-3.5h-0.3c-0.8 1.6-2.5 3.5-6.3 3.5c-5.2 0-9.1-3.7-9.1-11zm15.7 0c0-4.3-1.8-7-5.2-7c-3.4 0-5.2 2.9-5.2 7c0 4.1 1.8 7.2 5.2 7.2c3.4 0 5.2-2.9 5.2-7.2z"/>
		<path id="Layer" class="s0" d="m53.1 31.8h18.9v4.5h-13.5v8.2h12.2v4.5h-12.3v12.2h-5.3z"/>
		<path id="Layer" class="s0" d="m87.2 39.1h5.2v22h-5v-3.9h-0.2c-1 2.5-3.3 3.9-6.6 3.9c-4.3 0-7.4-2.7-7.4-8v-14h5.2v13.2c0 2.8 1.7 4.6 4.2 4.6c2.6 0 4.7-2.1 4.7-4.7q0-0.2 0-0.3z"/>
		<path id="Layer" class="s0" d="m106.7 43.2h-4.4v11.4c0 2.1 1 2.6 2.4 2.6c0.5 0 1-0.1 1.5-0.2l0.9 4.1c-1 0.3-2 0.5-3.1 0.5c-3.9 0.1-6.9-1.9-6.9-6.1v-12.3h-3.1v-4h3.1v-5.3h5.2v5.3h4.4z"/>
		<path id="Layer" class="s0" d="m123.1 39.1h5.2v22h-5v-3.9h-0.3c-1 2.5-3.3 3.9-6.6 3.9c-4.3 0-7.3-2.7-7.3-8v-14h5.2v13.2c0 2.8 1.7 4.6 4.2 4.6c2.6 0 4.7-2.1 4.7-4.7q0-0.2 0-0.3z"/>
		<path id="Layer" class="s0" d="m131.6 39.1h5v3.7h0.2c0.7-2.4 2.9-4.1 5.4-4c0.6 0 1.3 0.1 1.9 0.1v4.8q-1.2-0.3-2.4-0.3c-2.6-0.2-4.8 1.8-5 4.4v0.4v13h-5.2z"/>
		<path id="Layer" fill-rule="evenodd" class="s0" d="m164.9 36.3c0-2.7 2.2-4.9 4.9-4.9c2.7 0 4.9 2.2 4.9 4.9c0 2.7-2.2 4.9-4.9 4.9c-2.8 0-4.9-2.2-4.9-4.9zm8.8 0c0-2.2-1.8-4-4-4c-2.2 0-4 1.8-4 4c0 2.2 1.8 4 4 4c2.2 0 4-1.8 4-4zm-5.6-2.3h2.2c0.8 0 1.4 0.6 1.4 1.4c0 0.5-0.3 1.1-0.8 1.3l1 1.8h-0.9l-0.8-1.6h-1.2v1.6h-0.8zm1.9 2.2c0.4 0 0.8-0.4 0.8-0.8c0 0 0 0 0-0.1c0-0.4-0.3-0.8-0.7-0.8h-1.2v1.6h1.1z"/>
		<path id="Layer" fill-rule="evenodd" class="s0" d="m144.2 50.3c0-6.8 4.1-11.4 10.4-11.4c5.4 0 10.1 3.4 10.1 11.1v1.6h-15.4c0 3.8 2.3 5.6 5.6 5.6c2.2 0 4-0.5 4.7-2.4h5.1c-0.9 3.8-4.3 6.5-9.8 6.5c-6.6-0.1-10.7-4.1-10.7-11zm15.5-2.2c0.1-2.7-1.9-5-4.6-5.2c-0.1 0-0.2 0-0.4 0c-2.9 0-5.3 2.3-5.3 5.2z"/>
		<path id="Layer" fill-rule="evenodd" class="s0" d="m178.2 18.3c0-6.8 4.1-11.4 10.4-11.4c5.4 0 10.1 3.4 10.1 11.1v1.6h-15.4c0 3.8 2.3 5.6 5.6 5.6c2.2 0 4-0.5 4.7-2.4h5.1c-0.9 3.8-4.3 6.5-9.8 6.5c-6.6-0.1-10.7-4.1-10.7-11zm15.5-2.2c0.1-2.7-1.9-5-4.6-5.2c-0.1 0-0.2 0-0.4 0c-2.9 0-5.3 2.3-5.3 5.2z"/>
		<path id="Layer" fill-rule="evenodd" class="s0" d="m76.2 18.3c0-6.8 4.1-11.4 10.4-11.4c5.4 0 10.1 3.4 10.1 11.1v1.6h-15.3c0 3.8 2.3 5.6 5.6 5.6c2.2 0 4-0.5 4.7-2.4h5.1c-0.9 3.8-4.3 6.5-9.8 6.5c-6.7-0.1-10.8-4.1-10.8-11zm15.6-2.2c0.1-2.7-1.9-5-4.6-5.2c-0.1 0-0.2 0-0.4 0c-2.9 0-5.3 2.3-5.3 5.2z"/>
		<g id="Layer">
			<path id="Layer" fill-rule="evenodd" class="s0" d="m26.3 29.7c0 1.8-1.5 3.3-3.3 3.3c-1.8 0-3.3-1.5-3.3-3.3c0-1.8 1.5-3.3 3.3-3.3c1.8 0 3.3 1.5 3.3 3.3z"/>
			<path id="Layer" fill-rule="evenodd" class="s0" d="m45.8 29.7c0 1.8-1.5 3.3-3.3 3.3c-1.8 0-3.3-1.5-3.3-3.3c0-1.8 1.5-3.3 3.3-3.3c1.8 0 3.3 1.5 3.3 3.3z"/>
			<path id="Layer" fill-rule="evenodd" class="s0" d="m6.6 29.7c0 1.8-1.5 3.3-3.3 3.3c-1.8 0-3.3-1.5-3.3-3.3c0-1.8 1.5-3.3 3.3-3.3c1.8 0 3.3 1.5 3.3 3.3z"/>
			<path id="Layer" fill-rule="evenodd" class="s0" d="m20.2 48.2v-9.7c0-1.5 1.2-2.7 2.7-2.7c1.5 0 2.7 1.2 2.7 2.7v9.7c0 1.5-1.2 2.7-2.7 2.7c-1.5 0.1-2.7-1.1-2.7-2.7z"/>
			<path id="Layer" fill-rule="evenodd" class="s0" d="m30 43.3v-27.2c-0.1-1.5 1.1-2.8 2.6-2.9c1.5-0.1 2.8 1.1 2.9 2.6v0.3v27.1v0.1c-0.1 1.5-1.4 2.6-2.9 2.6c-1.4-0.1-2.5-1.2-2.6-2.6z"/>
			<path id="Layer" fill-rule="evenodd" class="s0" d="m10.4 43.3v-27.2c0-1.5 1.2-2.7 2.7-2.7c1.5 0 2.7 1.2 2.7 2.7v27.1v0.1c0 1.5-1.2 2.7-2.7 2.7c-1.5 0-2.7-1.2-2.7-2.7z"/>
			<path id="Layer" fill-rule="evenodd" class="s0" d="m20.2 20.4v-9.7c0-1.5 1.2-2.7 2.7-2.7c1.5 0 2.7 1.2 2.7 2.7v9.7v0.1c0 1.5-1.2 2.7-2.7 2.7c-1.5 0-2.7-1.2-2.7-2.8z"/>
		</g>
	</g>
<script xmlns="" id="bw-fido2-page-script"/></svg>